<?xml version="1.0" encoding="utf-8"?>
<!-- Generator: Adobe Illustrator 27.5.0, SVG Export Plug-In . SVG Version: 6.00 Build 0)  -->
<svg version="1.1" xmlns="http://www.w3.org/2000/svg" xmlns:xlink="http://www.w3.org/1999/xlink" x="0px" y="0px"
	 viewBox="0 0 1580.4 243.3" style="enable-background:new 0 0 1580.4 243.3;" xml:space="preserve">
<style type="text/css">
	.st0{fill:#0E0E10;stroke:#000000;stroke-width:3;stroke-miterlimit:10;}
	.st1{fill:none;stroke:#000000;stroke-width:6;stroke-miterlimit:10;}
	.st2{fill:#F8F6F2;}
	.st3{fill:#C01111;}
	.st4{font-family:'SpecialElite-Regular';}
	.st5{font-size:197px;}
	.st6{fill:#0E0E10;}
	.st7{font-size:192px;}
	.st8{fill:#FFFFFF;stroke:#000000;stroke-width:2;stroke-linecap:round;stroke-linejoin:bevel;stroke-miterlimit:10;}
</style>
<g id="Layer_1">
	<rect x="-1409.1" y="367.8" class="st0" width="1191.1" height="293.1"/>
	<text transform="matrix(1 0 0 1 -4747.5605 -812.7787)" class="st3 st4 st7">GHOST</text>
	<g>
		<g>
			<path d="M-4607.4-740.1c54.2-5.8,108.4-11.2,162.7-16c54-4.8,108-9.2,162.1-13.1c30.6-2.2,61.3-4.2,91.9-6.1
				c2.4-0.1,4.5-2,4.5-4.5c0-2.3-2.1-4.7-4.5-4.5c-54.4,3.4-108.7,7.2-163.1,11.5c-54,4.3-108,9.1-162,14.3
				c-30.6,3-61.1,6.1-91.6,9.4c-2.4,0.3-4.5,1.9-4.5,4.5C-4611.9-742.4-4609.8-739.9-4607.4-740.1L-4607.4-740.1z"/>
		</g>
	</g>
	<g>
		<g>
			<path d="M-4570.5-652c1.5-4,3-8.1,4.6-12.1c0.8-2,1.6-4.1,2.5-6.1c0.1-0.2,0.2-0.4,0.3-0.6c0,0,0.3-0.7,0.1-0.3
				c-0.2,0.4,0.1-0.3,0.1-0.3c0.1-0.3,0.2-0.6,0.4-0.9c0.4-1,0.9-2,1.3-3c3.4-7.8,7-15.6,10.8-23.2c7.5-15.2,15.5-30.1,23.8-44.9
				c4.7-8.3,9.4-16.6,14.1-24.8c-2.6-1.5-5.2-3-7.8-4.5c-15.4,27.5-29.3,55.7-41.9,84.6c-3.6,8.4-7.2,16.8-10.6,25.2
				c-0.9,2.2,1,5,3.1,5.5c2.6,0.6,4.6-0.8,5.5-3.1c1.5-3.7,3-7.4,4.5-11c0.7-1.7,1.1-2.7,2-4.6c0.8-1.9,1.6-3.8,2.4-5.7
				c3.1-7.1,6.3-14.2,9.5-21.2c6.5-14.2,13.4-28.1,20.7-42c4.1-7.8,8.2-15.5,12.5-23.1c1.1-2.1,0.6-5-1.6-6.2
				c-2.1-1.1-4.9-0.6-6.2,1.6c-8.5,14.8-16.9,29.6-25,44.6c-8.1,15.1-15.8,30.3-22.7,46c-4,9.1-7.8,18.4-11.3,27.8
				c-0.8,2.2,0.9,5,3.1,5.5C-4573.5-648.3-4571.4-649.6-4570.5-652L-4570.5-652z"/>
		</g>
	</g>
	<g>
		<g>
			<path d="M-4425.6-725.2c-13.6-1.1-28.6-1.9-40.1,6.6c-5.7,4.2-10.4,10.3-10.8,17.6c-0.4,6.9,4.2,12.3,10.2,14.8
				c5.2,2.1,11.1,2,16.6,1c5.9-1.1,11.6-3.2,16.9-6c10.8-5.8,19.8-14.8,26.8-24.8c2.4-3.5,5.7-7.7,3.4-12.1c-1.1-2.2-3.2-3.2-5.4-4
				c-1.9-0.7-3.8-1.3-5.8-1.6c-4.4-0.7-8.7-0.5-12.7,1.5c-3.5,1.7-6.1,4.8-7.3,8.5c-0.8,2.5,1,4.6,3.1,5.5c4.6,1.9,9.8,1.9,14.7,1.3
				c5.2-0.7,10.3-1.8,15.4-2.9c10.1-2.3,20.1-4.9,30-7.7c5.6-1.6,11.3-3.2,16.9-4.9c-1.5-2.5-2.9-5-4.4-7.5
				c-5.4,5.4-9.9,11.8-13.1,18.7c-1.4,3.1-2.6,6.5-2.3,10c0.4,4,2.6,7.9,6.9,8.7c4.3,0.8,8.6-1.3,12.4-3c3.1-1.3,6.2-2.9,9.1-4.6
				c6-3.6,11.7-7.9,16.6-12.9c5.6-5.6,10.4-12,14.2-18.9c-2.7-1.2-5.5-2.3-8.2-3.5c-1.3,4-2.3,8.1-2.9,12.3
				c-0.6,4.1-1.3,8.6-0.1,12.7c1.2,4.2,4.6,7.3,8.8,8.3c3.7,0.9,7.5,0.5,11.2-0.1c14.5-2.4,28.2-9,39.4-18.4c3-2.5,5.9-5.3,8.5-8.3
				c1.5-1.7,3.3-3.5,3.9-5.7c0.8-2.9-0.4-6.8-3.8-7.3c-2.2-0.3-5.1,0.5-5.5,3.1c-2,11.5-4,23-5.9,34.5c2.9,0.4,5.9,0.8,8.8,1.2
				c0-0.4,0-0.8,0.1-1.2c0-0.3,0.1-0.5,0.1-0.8c0,0.1-0.1,0.8,0,0.2c0.2-0.9,0.3-1.8,0.5-2.6c0.2-0.8,0.4-1.6,0.7-2.4
				c0.1-0.4,0.3-0.7,0.4-1.1c-0.3,0.8,0.1-0.2,0.2-0.5c0.7-1.6,1.6-3.1,2.6-4.5c0.2-0.3,0.4-0.6,0.7-1c0.2-0.2,0.3-0.4,0.5-0.6
				c0,0.1-0.4,0.5-0.1,0.1c0.6-0.7,1.2-1.4,1.8-2.1c1.2-1.2,2.4-2.4,3.7-3.5c0.2-0.2,1.1-0.9,0.5-0.4c0.3-0.2,0.7-0.5,1-0.7
				c0.8-0.6,1.7-1.1,2.5-1.7c1.6-1,3.3-2,5.1-2.8c0.8-0.4,1.6-0.7,2.3-1.1c0.1,0,0.9-0.4,0.5-0.2c-0.4,0.2,0.2-0.1,0.3-0.1
				c0.5-0.2,0.9-0.4,1.4-0.6c4.1-1.6,8.4-2.8,12.6-4c2.3-0.6,3.9-3.2,3.1-5.5c-0.8-2.3-3.1-3.8-5.5-3.1c-15.7,4.2-32.6,11-40.3,26.4
				c-2.1,4.2-3.4,8.7-3.6,13.5c-0.1,2.2,1.8,4.1,3.9,4.4c2,0.3,4.6-1,4.9-3.2c2-11.5,4-23,5.9-34.5c-1.8,1-3.7,2.1-5.5,3.1
				c-1.8-0.3-2.7-2.4-2.4-3.9c-0.2,1,0.3-1,0,0c0.1-0.1,0.2-0.3,0.3-0.4c-0.2,0.2-0.3,0.4-0.5,0.6c-0.3,0.3-0.5,0.6-0.8,0.9
				c-1,1.2-2.1,2.4-3.2,3.5c-2.1,2.2-4.3,4.2-6.7,6.1c-0.3,0.2-0.6,0.5-0.9,0.7c-1,0.8,0.4-0.3-0.2,0.1c-0.6,0.4-1.2,0.9-1.7,1.3
				c-1.3,0.9-2.6,1.8-3.9,2.7c-2.6,1.6-5.2,3.1-7.9,4.4c-0.7,0.3-1.4,0.7-2.2,1c-0.4,0.2-0.7,0.3-1.1,0.5c0.9-0.4-0.3,0.1-0.4,0.2
				c-1.5,0.6-2.9,1.1-4.4,1.6c-2.9,1-5.8,1.8-8.8,2.4c-1.4,0.3-2.8,0.5-4.3,0.8c-1.3,0.2,1-0.1-0.2,0c-0.4,0-0.7,0.1-1.1,0.1
				c-0.7,0-1.4,0.1-2.1,0.1c-0.4,0-0.7,0-1.1-0.1c-1.2-0.1,0.9,0.3-0.2,0c-0.6-0.1-1.1-0.3-1.6-0.5c1,0.3,0.1,0-0.1-0.1
				c-0.2-0.1-1-0.8-0.2,0c-0.3-0.2-0.5-0.5-0.7-0.7c0.7,0.7,0-0.1-0.2-0.3c-0.6-0.9,0.1,0.7-0.1-0.3c-0.1-0.5-0.3-1-0.4-1.5
				c0.2,1.1,0-0.2,0-0.4c0-0.4,0-0.8,0-1.2c0-1,0.1-1.9,0.2-2.9c0-0.5,0.1-0.9,0.1-1.4c0-0.1,0.2-1.4,0.1-0.7
				c0.6-4.2,1.6-8.3,2.9-12.3c1.6-4.8-5.8-7.9-8.2-3.5c-1.5,2.7-3.1,5.3-4.9,7.9c-0.4,0.6-0.9,1.2-1.4,1.9c-0.8,1,0.6-0.7-0.2,0.3
				c-0.2,0.3-0.5,0.6-0.7,0.9c-1,1.2-2,2.4-3,3.5c-2.1,2.3-4.3,4.4-6.6,6.5c-0.5,0.4-1,0.8-1.5,1.2c-0.3,0.2-0.6,0.5-0.9,0.7
				c-0.1,0.1-1.1,0.9-0.3,0.3c-1.2,0.9-2.5,1.8-3.8,2.7c-2.6,1.7-5.2,3.3-8,4.7c-1.3,0.7-2.6,1.3-4,1.9c-0.3,0.1-0.6,0.3-0.9,0.4
				c-1.2,0.5,0.8-0.3-0.4,0.1c-0.8,0.3-1.7,0.7-2.5,1c-0.8,0.3-1.5,0.6-2.3,0.8c-0.3,0.1-0.6,0.2-0.9,0.2c-0.1,0-0.3,0.1-0.4,0.1
				c0.5-0.1,0.4-0.1-0.1,0c0.1,0,0.2,0,0.3,0.1c-0.6-0.2-0.6-0.1,0.1,0.1c-0.1,0-0.2-0.1-0.2-0.1c-0.4-0.3-0.3-0.2,0.3,0.2
				c-0.1-0.1-0.1-0.1-0.2-0.2c-0.3-0.4-0.2-0.3,0.2,0.3c-0.1-0.1-0.2-0.3-0.3-0.5c0.3,0.7,0.3,0.8,0.1,0.3c0-0.2-0.1-0.4-0.1-0.5
				c-0.3-0.9,0,1,0,0c0-0.6,0-1.2,0-1.8c0.1-1.1-0.2,1,0-0.1c0.1-0.3,0.1-0.6,0.2-0.9c0.2-0.6,0.4-1.2,0.6-1.8
				c-0.4,1.1,0.1-0.2,0.2-0.4c0.2-0.5,0.5-1,0.7-1.5c0.4-0.9,0.9-1.8,1.3-2.6c0.9-1.6,1.8-3.2,2.8-4.7c0.6-0.8,1.1-1.6,1.7-2.4
				c0.1-0.1,0.5-0.7,0.1-0.1c0.3-0.4,0.7-0.9,1.1-1.3c1.3-1.5,2.6-3,4-4.4c3.2-3.1,0-8.8-4.4-7.5c-19.3,5.6-38.6,11.5-58.4,15
				c-0.6,0.1-1.2,0.2-1.8,0.3c-0.9,0.1-0.3,0.1-0.1,0c-0.4,0-0.7,0.1-1.1,0.1c-1.3,0.1-2.5,0.2-3.8,0.2c-0.7,0-1.3,0-2-0.1
				c-0.3,0-0.6-0.1-0.9-0.1c-0.8-0.1,1,0.2-0.3-0.1c-1.3-0.3-2.5-0.6-3.8-1.1c1,1.8,2.1,3.7,3.1,5.5c0.4-1.1-0.5,0.8,0.1-0.2
				c0.1-0.2,0.2-0.4,0.3-0.6c0,0,0.7-1,0.2-0.4c-0.4,0.6,0.3-0.3,0.3-0.3c0.2-0.2,0.3-0.3,0.5-0.5c0.8-0.8-0.7,0.4,0.2-0.2
				c0.5-0.3,1-0.6,1.5-0.9c1-0.6-0.8,0.2,0.2-0.1c0.2-0.1,0.4-0.2,0.7-0.2c0.6-0.2,1.1-0.3,1.7-0.4c-0.8,0.1,0.2,0,0.4,0
				c0.4,0,0.8,0,1.1,0c0.3,0,0.6,0,0.9,0c0.3,0,0.6,0.1,0.9,0.1c-0.4,0-0.4,0-0.1,0c1.4,0.4,2.9,0.6,4.3,1.1
				c0.4,0.1,0.7,0.3,1.1,0.4c0.3,0.1,1.2,0.5,0.2,0.1c0,0,0.6,0.3,0.6,0.3c-0.5,0.2-1.2-2-1-2c0-0.1,0-0.1,0-0.2
				c-0.2,0.5-0.2,0.5,0,0.1c-0.1,0.3-0.3,0.5-0.4,0.7c-0.3,0.5-0.7,1.1-1,1.6c-0.8,1.2-1.6,2.3-2.4,3.5c-0.3,0.5-0.7,0.9-1,1.4
				c-0.1,0.2-0.7,0.9-0.1,0.2c-0.2,0.2-0.3,0.4-0.5,0.6c-0.9,1.1-1.8,2.2-2.7,3.3c-1.7,1.9-3.5,3.8-5.4,5.5
				c-0.9,0.8-1.8,1.6-2.7,2.4c-0.4,0.4-0.9,0.7-1.3,1.1c-0.3,0.2-0.6,0.5-0.9,0.7c0.6-0.5-0.1,0-0.3,0.2c-2,1.5-4.2,2.9-6.4,4.2
				c-1,0.6-2.1,1.2-3.2,1.7c-0.5,0.3-1,0.5-1.5,0.7c-0.3,0.2-0.7,0.3-1,0.5c0.7-0.3,0,0-0.3,0.1c-2.3,0.9-4.7,1.7-7.2,2.3
				c-1.2,0.3-2.5,0.5-3.7,0.7c-0.1,0-0.7,0.1-0.8,0.1c0,0,1.1-0.1,0.1,0c-0.6,0-1.2,0.1-1.8,0.1c-1.1,0-2.2,0-3.3-0.1
				c-0.1,0-0.5,0-0.7-0.1c0.2,0,0.4,0.1,0.5,0.1c-0.2,0-0.4-0.1-0.6-0.1c-0.5-0.1-1.1-0.2-1.6-0.3c-0.5-0.1-1-0.3-1.5-0.5
				c-0.2-0.1-0.5-0.2-0.7-0.3c-0.6-0.2,1,0.5,0.1,0c-0.5-0.2-0.9-0.5-1.3-0.7c-0.2-0.1-0.3-0.2-0.5-0.3c-0.8-0.5,0.6,0.6,0,0
				c-0.4-0.3-0.7-0.7-1.1-1c-0.1-0.1-0.1-0.1-0.2-0.2c-0.2-0.3-0.3-0.3,0,0c0.1,0.6,0-0.1-0.2-0.3c-0.1-0.2-0.2-0.3-0.3-0.5
				c0-0.1-0.1-0.2-0.1-0.3c-0.2-0.4-0.2-0.4,0.1,0.2c-0.3-0.2-0.4-1.5-0.5-1.8c0.2,1,0-0.3,0-0.5c0-0.3,0-0.6,0-0.8
				c0-1.2-0.2,0.7,0.1-0.5c0.1-0.3,0.1-0.6,0.2-0.8c0.1-0.3,0.2-0.7,0.3-1c0.1-0.2,0.4-1,0.1-0.3c0.3-0.7,0.7-1.4,1.1-2.1
				c0.3-0.5,0.6-0.9,0.9-1.4c0.7-1-0.6,0.6,0.2-0.3c0.2-0.2,0.3-0.4,0.5-0.6c0.9-1,1.8-1.9,2.8-2.7c0.2-0.1,0.9-0.6,0.1-0.1
				c0.3-0.2,0.6-0.4,0.9-0.7c0.6-0.4,1.3-0.8,1.9-1.2c0.6-0.3,1.2-0.7,1.9-1c0.3-0.1,0.6-0.3,0.9-0.4c1.1-0.5-0.8,0.3,0.3-0.1
				c2.8-1.1,5.7-1.9,8.7-2.3c0.9-0.1-1.1,0.1,0.5-0.1c0.5-0.1,0.9-0.1,1.4-0.1c0.9-0.1,1.9-0.1,2.8-0.2c1.7-0.1,3.5-0.1,5.2,0
				c3.7,0.1,7.3,0.4,11,0.7c2.4,0.2,4.6-2.2,4.5-4.5C-4421.2-723.3-4423-725-4425.6-725.2L-4425.6-725.2z"/>
		</g>
	</g>
	<g>
		<g>
			<path d="M-4719.6-421.1c40.1-27.3,78-57.9,112.9-91.5c9.9-9.6,19.7-19.4,29.1-29.4c-2.1-2.1-4.2-4.2-6.4-6.4
				c-13,14.8-21.7,33.3-24.6,52.9c-1.4,10-1.5,20,0,30c1.3,8.2,4.4,16.9,10.5,22.7c14,13.5,36.4,2.6,50.5-5.6
				c14.9-8.6,27.9-19.9,41.7-30.1c14.9-11.1,30.9-21.2,49.6-23.8c4.8-0.6,3.8-7.4,0-8.7c-16.1-5.4-30.3,7.2-37,20.6
				c-3.3,6.6-8.5,16-4.3,23.2c3.8,6.5,12.6,9.9,19.6,11.4c15,3.3,30.8-0.7,42.9-10c11.7-9.1,19.6-22.7,22.8-37.1
				c1.1-4.8,1.8-9.8-0.3-14.4c-1.5-3.2-4.2-5.8-7.4-7.5c-3.7-1.9-7.7-2.7-11.8-2.9c-5.2-0.2-10.5,0.7-15.7-0.4
				c-2.4-0.5-4.8,0.7-5.5,3.1c-2.2,7.8,4.4,13.3,11,15.9c8.1,3.2,17.6,4.1,26.2,5.1c9.4,1.1,19,1.5,28.4,1
				c8.4-0.4,17.3-1.6,24.7-6.1c7.6-4.6,13.1-12.4,13.5-21.5c0.2-5.4-7.1-5.6-8.8-1.2c-4.7,12-9.6,24.8-8.5,37.9
				c0.9,10.4,5.7,20.6,14.2,26.9c21.9,16.1,45.2-9.2,58.9-24.2c9.8-10.8,18.9-22.3,27.2-34.3c1.4-2,0.4-5-1.6-6.2
				c-2.3-1.4-4.7-0.3-6.2,1.6c-6.4,8.4-9.8,19-9.6,29.5c0.1,8.8,2.6,23.8,12.9,26.2c5.7,1.3,11-2.1,15.7-4.9
				c4.5-2.7,8.8-5.6,12.9-8.8c8.4-6.4,16-13.8,22.6-22c7.4-9.2,13.6-19.2,18.4-30c-2.8-0.8-5.6-1.5-8.4-2.3
				c-1.3,19.3-2.6,38.7-3.9,58c-0.3,4.3,6.6,6.3,8.4,2.3c12.3-27.4,41.2-45.7,71.3-44.7c5.8,0.2,5.8-8.8,0-9
				c-33-1.1-65.5,19-79,49.2c2.8,0.8,5.6,1.5,8.4,2.3c1.3-19.3,2.6-38.7,3.9-58c0.3-4.3-6.6-6.4-8.4-2.3
				c-7.2,16.3-17.7,30.9-30.8,43c-6.5,6-13.7,11.2-21.4,15.6c-1.8,1.1-4,2.6-6.1,2.9c-2.1,0.3-3.1-0.8-4.1-2.6
				c-2-3.6-2.9-8-3.2-12.1c-0.8-10,2.2-19.8,8.3-27.7c-2.6-1.5-5.2-3-7.8-4.5c-6.4,9.4-13.4,18.3-20.8,26.9c-7.3,8.4-15,17-23.7,24
				c-7,5.6-16.6,10.7-25.5,6.6c-7.6-3.5-12.1-11.9-13.3-19.9c-1.9-12.6,3.5-25.5,8-37c-2.9-0.4-5.9-0.8-8.8-1.2
				c-0.3,7.5-6.6,13.2-13.2,15.8c-8.5,3.2-18.1,3.1-27,3c-9.7-0.2-19.4-1.1-29-3c-4-0.8-8.5-1.4-12.2-3c-1.7-0.8-5.3-2.4-4.6-4.8
				c-1.8,1-3.7,2.1-5.5,3.1c3.7,0.8,7.5,0.9,11.3,0.8c3.3-0.1,6.7-0.4,9.9,0.2c5.4,1.1,9.1,3.9,8.4,9.8
				c-1.5,11.4-7.2,22.8-15.1,31.1c-8.2,8.5-19.3,13.7-31.2,13.9c-6,0.1-12-1-17.4-3.8c-2-1-4.6-2.3-5.7-4.4
				c-1.4-2.7,1.1-6.9,2.1-9.4c4.7-11.2,14.7-26,29-21.3c0-2.9,0-5.8,0-8.7c-32.1,4.4-55.7,29.1-81.1,46.8
				c-6.5,4.6-13.3,8.8-20.5,12.3c-3.4,1.6-6.9,3-10.5,4.2c-4.3,1.4-9.1,2.9-13.7,2.1c-7.4-1.2-11.6-8.4-13.7-14.9
				c-2.6-8.1-2.9-17-2.5-25.4c1.2-20.6,9.3-40.7,22.9-56.2c3.8-4.3-2.4-10.6-6.4-6.4c-32.9,34.8-68.7,67-107,95.8
				c-10.9,8.2-22,16.1-33.3,23.8C-4728.9-425.6-4724.4-417.8-4719.6-421.1L-4719.6-421.1z"/>
		</g>
	</g>
	<g>
		<g>
			<path d="M-4708.5-489.8c43.1-9.3,86.2-18.7,129.4-28c43.3-9.4,86.7-18.8,130-28.1c43.1-9.3,86.2-18.7,129.4-28
				c42.6-9.2,85.1-19,127.9-27.5c40.9-8.1,83.6-14.1,125.1-6.4c5.1,0.9,10.1,2.1,15.1,3.4c5.6,1.5,8-7.2,2.4-8.7
				c-41-10.9-83.8-7.8-125.2-0.7c-21,3.6-41.9,8.2-62.8,12.8c-21.9,4.7-43.8,9.5-65.6,14.2c-43.5,9.4-87.1,18.9-130.6,28.3
				c-43.5,9.4-87.1,18.9-130.6,28.3c-43.5,9.4-87.1,18.9-130.6,28.3c-5.4,1.2-10.7,2.3-16.1,3.5
				C-4716.5-497.2-4714.1-488.5-4708.5-489.8L-4708.5-489.8z"/>
		</g>
	</g>
	<text transform="matrix(1 0 0 1 -6200.646 -812.7787)" class="st3 st4 st7">GHOST</text>
	<path class="st1" d="M-6408.7-727.5c-28.7-6.3-58.6-7.4-87.7-3.4c-11.7,1.6-23.9,4.4-32.9,12.1c-13.1,11.3-16.3,30.3-15.6,47.6
		c1.4,34.4,15.1,68.3,38.1,94c6,6.7,12.8,16.9,6.7,23.6c-1.8,2-4.5,3-7.1,3.7c-20.3,5.5-41.6-3.8-59.3-15.2
		c-27.9-18.1-52-42.1-70.1-70"/>
	<path class="st1" d="M-6614.3-876.4c32.1-11.8,58.5-38.4,70.1-70.6c-7.9,17.2-14.8,34.8-20.6,52.8c24.6,12.7,59-1.9,67-28.5
		c-6.7,0-13,5.6-13.8,12.2c-1.2,9.1,7.1,17.3,16.2,18.9c9,1.6,18.1-1.9,26.1-6.3c12.3-6.8,24.6-19.5,20.9-33.1
		c-0.6-2.2-1.7-4.4-3.6-5.4c-1.9-1.1-4.3-0.8-6.5-0.5c-16.2,2.5-31.7,9.8-44,20.7c26.5-15.9,61-4.7,91-12.1
		c-2.4,5.6-4.9,11.4-4.7,17.5s4.2,12.5,10.2,13.4c5.7,0.9,11-3.1,15-7.4c8.8-9.3,15.6-20.6,19.6-32.8c-1.3,9.8-0.6,19.8,2,29.3
		c0.9,3.4,2.5,7.1,5.8,8.2c4.3,1.5,8.5-2.2,11.4-5.7c11.1-13.2,20.5-27.8,27.8-43.3c-0.5,20.8-4.1,41.5-10.5,61.2
		c4.1-15,11.8-29,22.2-40.5c2.9-3.2,6.1-6.3,10.2-7.6c10-3.2,20.1,5.4,30.5,4.8"/>
	<path class="st1" d="M-6571.6-923.8c12.3,0,24.6-0.8,36.8-2.4c3.1-0.4,6.9-1.5,7.3-4.6"/>
	<path class="st1" d="M-6583.9-770c7.3-6.6,14.6-13.3,20.8-20.9c5.7-6.9,10.4-14.5,15.1-22.1c3.3-5.2,6.5-10.5,9.8-15.7
		c-8.1,13.2-11.7,29.1-10,44.5c0.2,2.2,0.6,4.5,1.8,6.3c3.7,5.7,12.3,4.3,18.5,1.5c13.3-6,24.9-15.7,33.1-27.7
		c-4.7,3.1-8.1,8.3-9,13.9c-0.4,2.4-0.3,4.9,0.9,6.9c1.9,3.1,5.9,3.9,9.5,4.3c8.8,0.8,17.7,0.1,26.2-2.2c5.4-1.5,10.9-3.7,14.3-8.1
		c3.4-4.4,4-11.4,0-15.3c-1.7-1.7-4.1-2.6-6.4-3.2c-10-2.8-21-1.6-30.3,3.1c24.7-2.3,49.3-4.6,74-6.9c-1.4,4.4-2.1,9.1-2,13.8
		c0,1.7,0.2,3.6,1.5,4.7c1.1,0.9,2.6,1,3.9,1c8.5,0.1,17.1-2.1,24.6-6.2c1.4-0.8,2.8-1.7,3.5-3.1c1.7-3.2-0.7-7.6,1.4-10.6
		c1.4,4.4,0.7,9.5,3,13.5c0.9,1.6,2.3,3,3.9,4c5.9,4.1,14.3,4.2,20.3,0.3c6-3.9,9.2-11.7,7.8-18.7c-0.4-1.9-1-4.2,0.4-5.5
		c0.4,10.1-0.4,20.2-2.2,30.2c-3.2-6.2-1.6-14.5,3.8-19.1c4.9-4.2,11.7-4.9,18.1-5.5"/>
	<path class="st1" d="M-6522.6-815c-15.6,0.9-31.1,2.4-46.6,4.6c-2.6,0.4-5.9,1.6-5.7,4.2"/>
	<g>
		<g>
			<path d="M-6060.4-740.1c54.2-5.8,108.4-11.2,162.7-16c54-4.8,108-9.2,162.1-13.1c30.6-2.2,61.3-4.2,91.9-6.1
				c2.4-0.1,4.5-2,4.5-4.5c0-2.3-2.1-4.7-4.5-4.5c-54.4,3.4-108.7,7.2-163.1,11.5c-54,4.3-108,9.1-162,14.3
				c-30.6,3-61.1,6.1-91.6,9.4c-2.4,0.3-4.5,1.9-4.5,4.5C-6064.9-742.4-6062.9-739.9-6060.4-740.1L-6060.4-740.1z"/>
		</g>
	</g>
	<g>
		<g>
			<path d="M-6023.6-652c1.5-4,3-8.1,4.6-12.1c0.8-2,1.6-4.1,2.5-6.1c0.1-0.2,0.2-0.4,0.3-0.6c0,0,0.3-0.7,0.1-0.3
				c-0.2,0.4,0.1-0.3,0.1-0.3c0.1-0.3,0.2-0.6,0.4-0.9c0.4-1,0.9-2,1.3-3c3.4-7.8,7-15.6,10.8-23.2c7.5-15.2,15.5-30.1,23.8-44.9
				c4.7-8.3,9.4-16.6,14.1-24.8c-2.6-1.5-5.2-3-7.8-4.5c-15.4,27.5-29.3,55.7-41.9,84.6c-3.7,8.4-7.2,16.8-10.6,25.2
				c-0.9,2.2,1,5,3.1,5.5c2.6,0.6,4.6-0.8,5.5-3.1c1.5-3.7,3-7.4,4.5-11c0.7-1.7,1.1-2.7,2-4.6c0.8-1.9,1.6-3.8,2.4-5.7
				c3.1-7.1,6.3-14.2,9.5-21.2c6.5-14.2,13.4-28.1,20.7-42c4.1-7.8,8.2-15.5,12.5-23.1c1.1-2.1,0.6-5-1.6-6.2
				c-2.1-1.1-4.9-0.6-6.2,1.6c-8.5,14.8-16.9,29.6-25,44.6c-8.1,15.1-15.8,30.3-22.7,46c-4,9.1-7.8,18.4-11.3,27.8
				c-0.8,2.2,0.9,5,3.1,5.5C-6026.6-648.3-6024.5-649.6-6023.6-652L-6023.6-652z"/>
		</g>
	</g>
	<g>
		<g>
			<path d="M-5878.6-725.2c-13.6-1.1-28.6-1.9-40.1,6.6c-5.7,4.2-10.4,10.3-10.8,17.6c-0.4,6.9,4.2,12.3,10.2,14.8
				c5.2,2.1,11.1,2,16.6,1c5.9-1.1,11.6-3.2,16.9-6c10.8-5.8,19.8-14.8,26.8-24.8c2.4-3.5,5.7-7.7,3.4-12.1c-1.1-2.2-3.2-3.2-5.4-4
				c-1.9-0.7-3.8-1.3-5.8-1.6c-4.4-0.7-8.7-0.5-12.7,1.5c-3.5,1.7-6.1,4.8-7.3,8.5c-0.8,2.5,1,4.6,3.1,5.5c4.6,1.9,9.8,1.9,14.7,1.3
				c5.2-0.7,10.3-1.8,15.4-2.9c10.1-2.3,20.1-4.9,30-7.7c5.6-1.6,11.3-3.2,16.9-4.9c-1.5-2.5-2.9-5-4.4-7.5
				c-5.4,5.4-9.9,11.8-13.1,18.7c-1.4,3.1-2.6,6.5-2.3,10c0.4,4,2.6,7.9,6.9,8.7c4.3,0.8,8.6-1.3,12.4-3c3.1-1.3,6.2-2.9,9.1-4.6
				c6-3.6,11.7-7.9,16.6-12.9c5.6-5.6,10.4-12,14.2-18.9c-2.7-1.2-5.5-2.3-8.2-3.5c-1.3,4-2.3,8.1-2.9,12.3
				c-0.6,4.1-1.3,8.6-0.1,12.7c1.2,4.2,4.6,7.3,8.8,8.3c3.7,0.9,7.5,0.5,11.2-0.1c14.5-2.4,28.2-9,39.4-18.4c3-2.5,5.9-5.3,8.5-8.3
				c1.5-1.7,3.3-3.5,3.9-5.7c0.8-2.9-0.4-6.8-3.8-7.3c-2.2-0.3-5.1,0.5-5.5,3.1c-2,11.5-4,23-5.9,34.5c2.9,0.4,5.9,0.8,8.8,1.2
				c0-0.4,0-0.8,0.1-1.2c0-0.3,0.1-0.5,0.1-0.8c0,0.1-0.1,0.8,0,0.2c0.2-0.9,0.3-1.8,0.5-2.6c0.2-0.8,0.4-1.6,0.7-2.4
				c0.1-0.4,0.3-0.7,0.4-1.1c-0.3,0.8,0.1-0.2,0.2-0.5c0.7-1.6,1.6-3.1,2.6-4.5c0.2-0.3,0.4-0.6,0.7-1c0.2-0.2,0.3-0.4,0.5-0.6
				c0,0.1-0.4,0.5-0.1,0.1c0.6-0.7,1.2-1.4,1.8-2.1c1.2-1.2,2.4-2.4,3.7-3.5c0.2-0.2,1.1-0.9,0.5-0.4c0.3-0.2,0.7-0.5,1-0.7
				c0.8-0.6,1.7-1.1,2.5-1.7c1.6-1,3.3-2,5.1-2.8c0.8-0.4,1.6-0.7,2.4-1.1c0.1,0,0.9-0.4,0.5-0.2c-0.4,0.2,0.2-0.1,0.3-0.1
				c0.5-0.2,0.9-0.4,1.4-0.6c4.1-1.6,8.4-2.8,12.6-4c2.3-0.6,3.9-3.2,3.1-5.5c-0.8-2.3-3.1-3.8-5.5-3.1c-15.7,4.2-32.6,11-40.3,26.4
				c-2.1,4.2-3.4,8.7-3.6,13.5c-0.1,2.2,1.8,4.1,3.9,4.4c2,0.3,4.6-1,4.9-3.2c2-11.5,4-23,5.9-34.5c-1.8,1-3.7,2.1-5.5,3.1
				c-1.8-0.3-2.7-2.4-2.4-3.9c-0.2,1,0.3-1,0,0c0.1-0.1,0.2-0.3,0.3-0.4c-0.2,0.2-0.3,0.4-0.5,0.6c-0.3,0.3-0.5,0.6-0.8,0.9
				c-1,1.2-2.1,2.4-3.2,3.5c-2.1,2.2-4.3,4.2-6.7,6.1c-0.3,0.2-0.6,0.5-0.9,0.7c-1,0.8,0.4-0.3-0.2,0.1c-0.6,0.4-1.2,0.9-1.7,1.3
				c-1.3,0.9-2.6,1.8-3.9,2.7c-2.6,1.6-5.2,3.1-7.9,4.4c-0.7,0.3-1.4,0.7-2.2,1c-0.4,0.2-0.7,0.3-1.1,0.5c0.9-0.4-0.3,0.1-0.4,0.2
				c-1.5,0.6-2.9,1.1-4.4,1.6c-2.9,1-5.8,1.8-8.8,2.4c-1.4,0.3-2.8,0.5-4.3,0.8c-1.3,0.2,1-0.1-0.2,0c-0.4,0-0.7,0.1-1.1,0.1
				c-0.7,0-1.4,0.1-2.1,0.1c-0.4,0-0.7,0-1.1-0.1c-1.2-0.1,0.9,0.3-0.2,0c-0.6-0.1-1.1-0.3-1.6-0.5c1,0.3,0.1,0-0.1-0.1
				c-0.2-0.1-1-0.8-0.2,0c-0.3-0.2-0.5-0.5-0.7-0.7c0.7,0.7,0-0.1-0.2-0.3c-0.6-0.9,0.1,0.7-0.1-0.3c-0.1-0.5-0.3-1-0.4-1.5
				c0.2,1.1,0-0.2,0-0.4c0-0.4,0-0.8,0-1.2c0-1,0.1-1.9,0.2-2.9c0-0.5,0.1-0.9,0.1-1.4c0-0.1,0.2-1.4,0.1-0.7
				c0.6-4.2,1.6-8.3,2.9-12.3c1.6-4.8-5.8-7.9-8.2-3.5c-1.5,2.7-3.1,5.3-4.9,7.9c-0.4,0.6-0.9,1.2-1.4,1.9c-0.8,1,0.6-0.7-0.2,0.3
				c-0.2,0.3-0.5,0.6-0.7,0.9c-1,1.2-2,2.4-3,3.5c-2.1,2.3-4.3,4.4-6.6,6.5c-0.5,0.4-1,0.8-1.5,1.2c-0.3,0.2-0.6,0.5-0.9,0.7
				c-0.1,0.1-1.1,0.9-0.3,0.3c-1.2,0.9-2.5,1.8-3.8,2.7c-2.6,1.7-5.2,3.3-8,4.7c-1.3,0.7-2.6,1.3-4,1.9c-0.3,0.1-0.6,0.3-0.9,0.4
				c-1.2,0.5,0.8-0.3-0.4,0.1c-0.8,0.3-1.7,0.7-2.5,1c-0.8,0.3-1.5,0.6-2.3,0.8c-0.3,0.1-0.6,0.2-0.9,0.2c-0.1,0-0.3,0.1-0.4,0.1
				c0.5-0.1,0.4-0.1-0.1,0c0.1,0,0.2,0,0.3,0.1c-0.6-0.2-0.6-0.1,0.1,0.1c-0.1,0-0.2-0.1-0.2-0.1c-0.4-0.3-0.3-0.2,0.3,0.2
				c-0.1-0.1-0.1-0.1-0.2-0.2c-0.3-0.4-0.2-0.3,0.2,0.3c-0.1-0.1-0.2-0.3-0.3-0.5c0.3,0.7,0.3,0.8,0.1,0.3c0-0.2-0.1-0.4-0.1-0.5
				c-0.3-0.9,0,1,0,0c0-0.6,0-1.2,0-1.8c0.1-1.1-0.2,1,0-0.1c0.1-0.3,0.1-0.6,0.2-0.9c0.2-0.6,0.4-1.2,0.6-1.8
				c-0.4,1.1,0.1-0.2,0.2-0.4c0.2-0.5,0.5-1,0.7-1.5c0.4-0.9,0.9-1.8,1.3-2.6c0.9-1.6,1.8-3.2,2.8-4.7c0.6-0.8,1.1-1.6,1.7-2.4
				c0.1-0.1,0.5-0.7,0.1-0.1c0.3-0.4,0.7-0.9,1.1-1.3c1.3-1.5,2.6-3,4-4.4c3.2-3.1,0-8.8-4.4-7.5c-19.3,5.6-38.6,11.5-58.4,15
				c-0.6,0.1-1.2,0.2-1.8,0.3c-0.9,0.1-0.3,0.1-0.1,0c-0.4,0-0.7,0.1-1.1,0.1c-1.3,0.1-2.5,0.2-3.8,0.2c-0.7,0-1.3,0-2-0.1
				c-0.3,0-0.6-0.1-0.9-0.1c-0.8-0.1,1,0.2-0.3-0.1c-1.3-0.3-2.5-0.6-3.8-1.1c1,1.8,2.1,3.7,3.1,5.5c0.4-1.1-0.5,0.8,0.1-0.2
				c0.1-0.2,0.2-0.4,0.3-0.6c0,0,0.7-1,0.2-0.4c-0.4,0.6,0.3-0.3,0.3-0.3c0.2-0.2,0.3-0.3,0.5-0.5c0.8-0.8-0.7,0.4,0.2-0.2
				c0.5-0.3,1-0.6,1.5-0.9c1-0.6-0.8,0.2,0.2-0.1c0.2-0.1,0.4-0.2,0.7-0.2c0.6-0.2,1.1-0.3,1.7-0.4c-0.8,0.1,0.2,0,0.4,0
				c0.4,0,0.8,0,1.1,0c0.3,0,0.6,0,0.9,0c0.3,0,0.6,0.1,0.9,0.1c-0.4,0-0.4,0-0.1,0c1.4,0.4,2.9,0.6,4.3,1.1
				c0.4,0.1,0.7,0.3,1.1,0.4c0.3,0.1,1.2,0.5,0.2,0.1c0,0,0.6,0.3,0.6,0.3c-0.5,0.2-1.2-2-1-2c0-0.1,0-0.1,0-0.2
				c-0.2,0.5-0.2,0.5,0,0.1c-0.1,0.3-0.3,0.5-0.4,0.7c-0.3,0.5-0.7,1.1-1,1.6c-0.8,1.2-1.6,2.3-2.4,3.5c-0.3,0.5-0.7,0.9-1,1.4
				c-0.1,0.2-0.7,0.9-0.1,0.2c-0.2,0.2-0.3,0.4-0.5,0.6c-0.9,1.1-1.8,2.2-2.7,3.3c-1.7,1.9-3.5,3.8-5.4,5.5
				c-0.9,0.8-1.8,1.6-2.7,2.4c-0.4,0.4-0.9,0.7-1.3,1.1c-0.3,0.2-0.6,0.5-0.9,0.7c0.6-0.5-0.1,0-0.3,0.2c-2,1.5-4.2,2.9-6.4,4.2
				c-1,0.6-2.1,1.2-3.2,1.7c-0.5,0.3-1,0.5-1.5,0.7c-0.3,0.2-0.7,0.3-1,0.5c0.7-0.3,0,0-0.3,0.1c-2.3,0.9-4.7,1.7-7.2,2.3
				c-1.2,0.3-2.5,0.5-3.7,0.7c-0.1,0-0.7,0.1-0.8,0.1c0,0,1.1-0.1,0.1,0c-0.6,0-1.2,0.1-1.8,0.1c-1.1,0-2.2,0-3.3-0.1
				c-0.1,0-0.5,0-0.7-0.1c0.2,0,0.4,0.1,0.5,0.1c-0.2,0-0.4-0.1-0.6-0.1c-0.5-0.1-1.1-0.2-1.6-0.3c-0.5-0.1-1-0.3-1.5-0.5
				c-0.2-0.1-0.5-0.2-0.7-0.3c-0.6-0.2,1,0.5,0.1,0c-0.5-0.2-0.9-0.5-1.3-0.7c-0.2-0.1-0.3-0.2-0.5-0.3c-0.8-0.5,0.6,0.6,0,0
				c-0.4-0.3-0.7-0.7-1.1-1c-0.1-0.1-0.1-0.1-0.2-0.2c-0.2-0.3-0.3-0.3,0,0c0.1,0.6,0-0.1-0.2-0.3c-0.1-0.2-0.2-0.3-0.3-0.5
				c0-0.1-0.1-0.2-0.1-0.3c-0.2-0.4-0.2-0.4,0.1,0.2c-0.3-0.2-0.4-1.5-0.5-1.8c0.2,1,0-0.3,0-0.5c0-0.3,0-0.6,0-0.8
				c0-1.2-0.2,0.7,0.1-0.5c0.1-0.3,0.1-0.6,0.2-0.8c0.1-0.3,0.2-0.7,0.3-1c0.1-0.2,0.4-1,0.1-0.3c0.3-0.7,0.7-1.4,1.1-2.1
				c0.3-0.5,0.6-0.9,0.9-1.4c0.7-1-0.6,0.6,0.2-0.3c0.2-0.2,0.3-0.4,0.5-0.6c0.9-1,1.8-1.9,2.8-2.7c0.2-0.1,0.9-0.6,0.1-0.1
				c0.3-0.2,0.6-0.4,0.9-0.7c0.6-0.4,1.3-0.8,1.9-1.2c0.6-0.3,1.2-0.7,1.9-1c0.3-0.1,0.6-0.3,0.9-0.4c1.1-0.5-0.8,0.3,0.3-0.1
				c2.8-1.1,5.7-1.9,8.7-2.3c0.9-0.1-1.1,0.1,0.5-0.1c0.5-0.1,0.9-0.1,1.4-0.1c0.9-0.1,1.9-0.1,2.8-0.2c1.7-0.1,3.5-0.1,5.2,0
				c3.7,0.1,7.3,0.4,11,0.7c2.4,0.2,4.6-2.2,4.5-4.5C-5874.3-723.3-5876.1-725-5878.6-725.2L-5878.6-725.2z"/>
		</g>
	</g>
	<g>
		<g>
			<path d="M-6528.3-519.1c-11.5-4.8-25.4-2.8-35.2,4.8c-2.5,1.9-4.8,4.1-6.5,6.8c-1.9,3-2.4,6.5-1.6,10c1.4,5.8,5.6,10.9,10.4,14.4
				c9.5,6.9,22.5,8,33.1,3.3c11.2-5,19.3-15.7,22.5-27.4c0.9-3.2,1.6-6.6,0.9-10c-0.7-3.6-3.4-5.8-6.9-6.5
				c-8.8-1.7-18.3-1.4-27.1,0.2c-1.8,0.3-1.2,2.8,0.4,2.9c21,1.6,42,2.3,63,2.3c6,0,12-0.1,18-0.3c-0.4-0.9-0.7-1.7-1.1-2.6
				c-4.7,4.6-8.1,10.5-9.7,16.8c-0.7,2.9-1.7,6.6,0.6,9.1c2.1,2.2,5.7,3.3,8.5,3.9c13.1,3.1,26.4-2.7,36.1-11.4
				c5.6-5,10.2-11.1,14.4-17.3c-0.9,0-1.7,0-2.6,0c2.3,3.8,0.1,9,3.5,12.4c1.9,1.9,4.6,2.3,7.1,2.6c2.8,0.3,5.6,0.3,8.4,0
				c11.2-1.4,21.1-7.4,29.1-15.1c4.6-4.5,8.7-9.6,12.5-14.8c-0.9-0.5-1.7-1-2.6-1.5c-5.3,10.9-8.6,22.5-9.9,34.5
				c-0.1,1.3,1.7,2,2.6,1.1c12.1-14.1,27.9-24.8,45.5-30.8c5-1.7,10.1-3,15.3-3.9c1.9-0.3,1.1-3.2-0.8-2.9
				c-18.7,3.3-36.4,11.8-50.9,24.1c-4,3.5-7.8,7.3-11.3,11.3c0.9,0.4,1.7,0.7,2.6,1.1c1.2-11.4,4.4-22.7,9.5-33
				c0.9-1.8-1.5-3.1-2.6-1.5c-6.2,8.4-13.1,16.6-22,22.2c-4.4,2.7-9.2,4.8-14.2,5.8c-2.5,0.5-5.1,0.8-7.7,0.7
				c-2.4,0-5.2-0.1-7.4-1.2c-2.2-1.1-2.3-3.5-2.5-5.7c-0.2-2.4-0.3-4.8-1.6-6.8c-0.6-1-2-0.9-2.6,0c-6.6,9.7-14.5,19.3-25.4,24.5
				c-5.3,2.5-11.3,3.8-17.2,3.5c-2.8-0.2-5.6-0.8-8.3-1.8c-1.1-0.5-2.7-1-3.5-2c-1-1.2-0.5-3.1-0.2-4.4c1.2-6.6,4.5-12.6,9.3-17.2
				c0.9-0.9,0.2-2.6-1.1-2.6c-21,0.6-42,0.3-63-0.8c-6-0.3-12-0.7-17.9-1.2c0.1,1,0.3,2,0.4,2.9c7.3-1.2,14.7-1.5,22-0.7
				c2.8,0.3,6.7,0.4,8,3.5c1,2.4,0.5,5.2,0,7.7c-2.3,10.7-9,20.7-18.5,26.1c-9,5.2-20.3,5.4-29.5,0.6c-4.5-2.3-8.4-5.8-10.9-10.3
				c-1.5-2.8-2.7-6.1-1.9-9.3c0.7-2.8,2.8-5.1,4.9-7.1c9.2-8.5,23.2-10.8,34.7-6C-6527.3-515.5-6526.6-518.4-6528.3-519.1
				L-6528.3-519.1z"/>
		</g>
	</g>
	<g>
		<g>
			<path d="M-6518.9-434.1c-14.6-5.9-31.5-5.2-45.7,1.6c-3.4,1.7-7.2,3.7-9.6,6.7c-2.4,3.1-2.6,7.1-1.7,10.8
				c1.7,6.5,6.1,12.1,11.4,16.1c11.9,9,27.6,9.4,41.1,3.8c7.3-3.1,14-7.6,19.8-13c5.3-4.9,10.5-11.5,9-19.2
				c-1.4-7.3-8.7-12.4-15.6-13.6c-9.6-1.7-18.9,2.7-27.3,6.7c-1.4,0.7-0.6,2.8,0.8,2.8c22.2,0.3,44.4,1.4,66.6,3.2
				c6.4,0.5,12.7,1.1,19,1.8c-0.4-0.8-0.9-1.5-1.3-2.3c-3.9,5.4-8.1,11.9-5.9,18.9c2,6.4,8.6,8.4,14.7,8c6.4-0.5,12.7-2.6,18.5-5.1
				c6-2.6,11.6-6.1,16.6-10.2c5.8-4.7,10.8-10.4,14.8-16.7c-0.9-0.4-1.8-0.8-2.7-1.2c-1.5,6.9-3,13.9-4.6,20.8
				c-0.2,0.8,0.2,1.6,1,1.8c12.3,3.3,25.3,4.5,37.7,1.7c10.3-2.3,20.1-7.7,27.2-15.6c3.9-4.3,6.8-9.3,8.6-14.8c-1,0-1.9,0-2.9,0
				c2.3,10.9,2.6,22.3,0.8,33.3c-0.2,1.3,1.4,2.7,2.5,1.5c12.8-15.5,29.4-27.8,47.9-35.5c5.3-2.2,10.7-4,16.2-5.5
				c1.9-0.5,1.1-3.4-0.8-2.9c-19.8,5.2-38.2,15.2-53.3,29c-4.4,4-8.4,8.2-12.2,12.8c0.8,0.5,1.7,1,2.5,1.5
				c1.9-11.6,1.6-23.4-0.8-34.9c-0.3-1.5-2.5-1.3-2.9,0c-3,9.3-9.8,16.9-18,22c-9.4,5.8-20.5,8.1-31.6,7.8
				c-6.9-0.2-13.7-1.3-20.3-3.1c0.3,0.6,0.7,1.2,1,1.8c1.5-6.9,3-13.9,4.6-20.8c0.4-1.7-1.8-2.6-2.7-1.2
				c-6.3,10-15.3,18.2-25.8,23.7c-5.2,2.7-10.7,4.8-16.5,6c-4.9,1.1-12,2.2-15.6-2.4c-4.8-6.1,0.7-14,4.3-19.1
				c0.7-1-0.3-2.2-1.3-2.3c-22.1-2.3-44.3-3.9-66.5-4.6c-6.4-0.2-12.8-0.4-19.1-0.4c0.3,0.9,0.5,1.9,0.8,2.8
				c7-3.3,14.5-6.8,22.4-6.6c5.9,0.2,12.2,3.3,15,8.7c3.4,6.4-0.8,13-5.3,17.6c-4.9,5-10.7,9.3-16.9,12.5c-11.9,6-26.1,7.4-38.1,0.7
				c-5.2-2.9-9.7-7.2-12.4-12.6c-1.5-3-2.8-6.8-1.8-10.1c1-3.4,4.4-5.4,7.3-7c14-7.8,31.3-8.7,46.1-2.7
				C-6517.9-430.4-6517.1-433.4-6518.9-434.1L-6518.9-434.1z"/>
		</g>
	</g>
	<g>
		<g>
			<path d="M-6078.1-506c40.1-27.3,78-57.9,112.9-91.5c9.9-9.6,19.7-19.4,29.1-29.4c-2.1-2.1-4.2-4.2-6.4-6.4
				c-13,14.8-21.7,33.3-24.6,52.9c-1.4,10-1.5,20,0,30c1.3,8.2,4.4,16.9,10.5,22.7c14,13.5,36.4,2.6,50.5-5.6
				c14.9-8.6,27.9-19.9,41.7-30.1c14.9-11.1,30.9-21.2,49.6-23.8c4.8-0.6,3.8-7.4,0-8.7c-16.1-5.4-30.3,7.2-37,20.6
				c-3.3,6.6-8.5,16-4.3,23.2c3.8,6.5,12.6,9.9,19.6,11.4c15,3.3,30.8-0.7,42.9-10c11.7-9.1,19.6-22.7,22.8-37.1
				c1.1-4.8,1.8-9.8-0.3-14.4c-1.5-3.2-4.2-5.8-7.4-7.5c-3.7-1.9-7.7-2.7-11.8-2.9c-5.2-0.2-10.5,0.7-15.7-0.4
				c-2.4-0.5-4.8,0.7-5.5,3.1c-2.2,7.8,4.4,13.3,11,15.9c8.1,3.2,17.6,4.1,26.2,5.1c9.4,1.1,19,1.5,28.4,1
				c8.4-0.4,17.3-1.6,24.7-6.1c7.6-4.6,13.1-12.4,13.5-21.5c0.2-5.4-7.1-5.6-8.8-1.2c-4.7,12-9.6,24.8-8.5,37.9
				c0.9,10.4,5.7,20.6,14.2,26.9c21.9,16.1,45.2-9.2,58.9-24.2c9.8-10.8,18.9-22.3,27.2-34.3c1.4-2,0.4-5-1.6-6.2
				c-2.3-1.4-4.7-0.3-6.2,1.6c-6.4,8.4-9.8,19-9.6,29.5c0.1,8.8,2.6,23.8,12.9,26.2c5.7,1.3,11-2.1,15.7-4.9
				c4.5-2.7,8.8-5.6,12.9-8.8c8.4-6.4,16-13.8,22.6-22c7.4-9.2,13.6-19.2,18.4-30c-2.8-0.8-5.6-1.5-8.4-2.3
				c-1.3,19.3-2.6,38.7-3.9,58c-0.3,4.3,6.6,6.3,8.4,2.3c12.3-27.4,41.2-45.7,71.3-44.7c5.8,0.2,5.8-8.8,0-9
				c-33-1.1-65.5,19-79,49.2c2.8,0.8,5.6,1.5,8.4,2.3c1.3-19.3,2.6-38.7,3.9-58c0.3-4.3-6.6-6.4-8.4-2.3
				c-7.2,16.3-17.7,30.9-30.8,43c-6.5,6-13.7,11.2-21.4,15.6c-1.8,1.1-4,2.6-6.1,2.9c-2.1,0.3-3.1-0.8-4.1-2.6
				c-2-3.6-2.9-8-3.2-12.1c-0.8-10,2.2-19.8,8.3-27.7c-2.6-1.5-5.2-3-7.8-4.5c-6.4,9.4-13.4,18.3-20.8,26.9c-7.3,8.4-15,17-23.7,24
				c-7,5.6-16.6,10.7-25.5,6.6c-7.6-3.5-12.1-11.9-13.3-19.9c-1.9-12.6,3.5-25.5,8-37c-2.9-0.4-5.9-0.8-8.8-1.2
				c-0.3,7.5-6.6,13.2-13.2,15.8c-8.5,3.2-18.1,3.1-27,3c-9.7-0.2-19.4-1.1-29-3c-4-0.8-8.5-1.4-12.2-3c-1.7-0.8-5.3-2.4-4.6-4.8
				c-1.8,1-3.7,2.1-5.5,3.1c3.7,0.8,7.5,0.9,11.3,0.8c3.3-0.1,6.7-0.4,9.9,0.2c5.4,1.1,9.2,3.9,8.4,9.8
				c-1.5,11.4-7.2,22.8-15.1,31.1c-8.2,8.5-19.3,13.7-31.2,13.9c-6,0.1-12-1-17.4-3.8c-2-1-4.6-2.3-5.7-4.4
				c-1.4-2.7,1.1-6.9,2.1-9.4c4.7-11.2,14.7-26,29-21.3c0-2.9,0-5.8,0-8.7c-32.1,4.4-55.7,29.1-81.1,46.8
				c-6.5,4.6-13.3,8.8-20.5,12.3c-3.4,1.6-6.9,3-10.5,4.2c-4.3,1.4-9.1,2.9-13.7,2.1c-7.4-1.2-11.6-8.4-13.7-14.9
				c-2.6-8.1-2.9-17-2.5-25.4c1.1-20.6,9.3-40.7,22.9-56.2c3.8-4.3-2.4-10.6-6.4-6.4c-32.9,34.8-68.7,67-107,95.8
				c-10.9,8.2-22,16.1-33.3,23.8C-6087.4-510.5-6082.9-502.7-6078.1-506L-6078.1-506z"/>
		</g>
	</g>
	<g>
		<g>
			<path d="M-6066.9-574.7c43.1-9.3,86.2-18.7,129.4-28c43.3-9.4,86.7-18.8,130-28.1c43.1-9.3,86.2-18.7,129.4-28
				c42.6-9.2,85.1-19,127.9-27.5c40.9-8.1,83.6-14.1,125.1-6.4c5.1,0.9,10.1,2.1,15.1,3.4c5.6,1.5,8-7.2,2.4-8.7
				c-41-10.9-83.8-7.8-125.2-0.7c-21,3.6-41.9,8.2-62.7,12.8c-21.9,4.7-43.8,9.5-65.6,14.2c-43.5,9.4-87.1,18.9-130.6,28.3
				c-43.5,9.4-87.1,18.9-130.6,28.3c-43.5,9.4-87.1,18.9-130.6,28.3c-5.4,1.2-10.7,2.3-16.1,3.5
				C-6075-582.1-6072.6-573.5-6066.9-574.7L-6066.9-574.7z"/>
		</g>
	</g>
	<rect x="-3742.8" y="-1139.9" class="st0" width="956.8" height="768"/>
	<text transform="matrix(1 0 0 1 -3577.781 -812.7783)" class="st3 st4 st7">GHOST</text>
	<g>
		<g>
			<path class="st2" d="M-3442.4-725.4c27.6,0.2,54.7-11.4,74.2-30.9c5.5-5.5,10.3-11.7,14.4-18.3c2-3.3-3.1-6.3-5.2-3
				c-4,6.4-7.9,13.7-5.6,21.4c2.3,7.7,9.8,10.3,17.1,10.5c13.3,0.3,25-7.4,36.4-13.2c6.3-3.2,13-6.2,20.1-6.9
				c-0.3-2-0.5-3.9-0.8-5.9c-7.7,1.1-15.5,4.5-18.5,12.2c-2.9,7.2,1.1,14.6,8,17.5c7.9,3.4,16.3,0.5,23.8-2.6
				c3.4-1.4,6.7-3.3,8.5-6.6c1.7-3.1,2-7,0.8-10.4c-2.7-8.2-12.2-11.5-20-8.7c-2.6,0.9-3.1,5.1,0,5.8c24.3,5.4,50,3.8,73.4-4.8
				c-1.1-1.5-2.3-2.9-3.4-4.4c-2.5,4.9-4.5,10.1-5.8,15.5c-0.6,2.6-1.5,5.5,0,8c1.2,2.1,3.5,3,5.9,3.2c4.4,0.3,9.2-1.9,13.1-3.8
				c4.2-2,8.1-4.7,11.5-7.8c3.9-3.5,7.2-7.7,9.8-12.2c-1.9-0.5-3.7-1-5.6-1.5c0,5,0,10,0,15c0,1.2,0.9,2.6,2.2,2.9
				c20.9,4.4,43.3-4.8,55-22.6c-1.8-0.8-3.7-1.5-5.5-2.3c-1.2,8-2.4,16-3.6,23.9c-0.2,1.6,0.4,3.2,2.1,3.7c1.6,0.4,3.2-0.5,3.7-2.1
				c3.9-13.2,18.4-22.6,32.1-20.4c1.6,0.3,3.2-0.4,3.7-2.1c0.4-1.4-0.5-3.4-2.1-3.7c-17-2.7-34.5,8-39.4,24.6
				c1.9,0.5,3.9,1.1,5.8,1.6c1.2-8,2.4-16,3.6-23.9c0.5-3.3-3.5-5.3-5.5-2.3c-10.2,15.4-30.2,23.7-48.3,19.8c0.7,1,1.5,1.9,2.2,2.9
				c0-5,0-10,0-15c0-2.9-4.1-4.1-5.6-1.5c-4.7,8.3-12,14.9-20.8,18.6c-2.1,0.9-4.3,1.7-6.5,2.1c-0.8,0.1-1.5,0-2.3,0
				c-0.5,0-0.3-0.5-0.1,0.1c-0.1-0.5,0-0.9,0.1-1.4c1.1-5.6,3.1-11.1,5.7-16.2c1.1-2.1-0.8-5.4-3.4-4.4c-22.4,8.2-46.9,9.9-70.2,4.8
				c0,1.9,0,3.9,0,5.8c4.3-1.5,10-0.8,12.2,3.8c0.9,1.9,1.1,4.2,0.3,6.1c-0.9,2.3-3.3,3.5-5.4,4.4c-5.2,2.3-11.8,5-17.6,3.5
				c-4.4-1.1-8.4-4.8-7.1-9.7c1.8-6.5,9-8.6,14.8-9.4c3.3-0.5,2.6-6.2-0.8-5.9c-12.5,1.2-23.1,7.9-34.1,13.4c-5.1,2.6-10.3,4.9-16,6
				c-4.8,1-12.6,1.5-16.2-2.7c-5.1-5.9,0.3-14.4,3.5-19.7c-1.7-1-3.5-2-5.2-3c-13.6,22.2-36.5,38-61.8,43.8
				c-7.1,1.6-14.3,2.4-21.6,2.3C-3446.3-731.4-3446.3-725.4-3442.4-725.4L-3442.4-725.4z"/>
		</g>
	</g>
	<g>
		<g>
			<path class="st2" d="M-3382.9-770.3c19.8-2.2,39.7-2.1,59.6-2c1.6,0,3-1.4,3-3c0-1.7-1.4-2.9-3-3c-11.7-0.9-23.5-0.9-35.2,0.3
				c1,1.3,1.9,2.5,2.9,3.8c0.5-2.8,1.5-5.2,3-7.6c0.9-1.4,0.3-3.3-1.1-4.1c-1.5-0.8-3.2-0.3-4.1,1.1c-1.8,2.7-3,5.8-3.7,9
				c-0.3,1.7,0.8,4,2.9,3.8c11.7-1.1,23.5-1.2,35.2-0.3c0-2,0-4,0-6c-19.9-0.1-39.8-0.2-59.6,2c-1.6,0.2-3,1.2-3,3
				C-3385.9-771.8-3384.5-770.1-3382.9-770.3L-3382.9-770.3z"/>
		</g>
	</g>
	<text transform="matrix(0.9983 -5.854000e-02 5.854000e-02 0.9983 -1353.5476 600.251)" class="st3 st4" style="font-size:208px;">Ghosttour</text>
	<text transform="matrix(1 0 0 1 -1319.6587 560.7807)" class="st4 st7" style="fill:#FFFFFF;">Ghosttour</text>
	<rect x="-1409.1" y="-447.2" class="st0" width="1191.1" height="293.1"/>
	
		<text transform="matrix(0.9983 -5.854000e-02 5.854000e-02 0.9983 -1353.5481 -214.7481)" class="st3 st4" style="font-size:208px;">Ghosttour</text>
	<text transform="matrix(1 0 0 1 -1317.1948 -250.4563)" class="st4 st7" style="fill:#1CD1C8;">Ghosttour</text>
	<text transform="matrix(1 0 0 1 -1328.4717 -243.9906)" class="st4 st7" style="fill:#FFFFFF;">Ghosttour</text>
	<rect x="-2720.1" y="-284" class="st0" width="956.8" height="768"/>
	<text transform="matrix(1 0 0 1 -2471.6177 89.6965)" class="st2 st4 st7">TOUR</text>
	<text transform="matrix(0.9983 -5.854000e-02 5.854000e-02 0.9983 -2552.2644 60.2887)" class="st3 st4 st7">GHOST</text>
	<rect x="-3742.8" y="-284" class="st0" width="956.8" height="768"/>
	<text transform="matrix(1 0 0 1 -3494.3809 89.6965)" class="st2 st4 st7">TOUR</text>
	<text transform="matrix(1 0 0 1 -3577.7815 43.1036)" class="st3 st4 st7">GHOST</text>
	
		<text transform="matrix(0.9983 -5.854000e-02 5.854000e-02 0.9983 -1353.5486 195.4206)" class="st3 st4" style="font-size:200px;">Ghosttour</text>
	<text transform="matrix(1 0 0 1 -1341.2603 165.1431)" class="st6 st4 st7">Ghosttour</text>
	<g>
		<text transform="matrix(1 0 0 1 -1356.6157 163.1432)" class="st8 st4 st7">Ghosttour</text>
	</g>
</g>
<g id="Layer_2">
	<text transform="matrix(0.9996 -2.742665e-02 2.742665e-02 0.9996 4.8487 188.9109)" class="st3 st4 st5">Gå på opdagelse</text>
	<text transform="matrix(1 0 0 1 26.5308 165.1431)" class="st6 st4 st7">Gå på opdagelse</text>
	<g>
		<text transform="matrix(1 0 0 1 11.1753 163.1432)" class="st8 st4 st7">Gå på opdagelse</text>
	</g>
</g>
</svg>
